PathFileType	4	(X/Y/Z)	C:\Users\Basilio\Documents\Thesis Gigler\squatting_fais\c3dfiles\076\SJ_pre2\markers_experimental.trc
DataRate	CameraRate	NumFrames	NumMarkers	Units	OrigDataRate	OrigDataStartFrame	OrigNumFrames
200.000000	200.000000	4	61	mm	200.000000	182	1456
Frame#	Time	FHD			LBHD			RBHD			C7			T10			CLAV			LSHO			LUUPA			LMUPA			LDUPA			LLEP			LMEP			LRAD			LUL			LRFIN			RSHO			RUPA1			RMUPA			RDUPA			RLEP			RMEP			RRAD			RUL			RUFIN			LASI			RASI			USACR			LSACR			RSACR			LTHI1			LTHI2			LTHI3			LTHI4			LLFC			LMFC			LTIB1			LTIB2			LTIB3			LTIB4			LLMAL			LMMAL			LHEE			LMT1			LMT2			LMT5			RTHI			RTHI2			RTHI3			RTHI4			RLFC			RMFC			RTIB1			RTIB2			RTIB3			RTIB4			RLMAL			RMMAL			RHEE			RMT1			RMT2			RMT5			
		X1	Y1	Z1	X2	Y2	Z2	X3	Y3	Z3	X4	Y4	Z4	X5	Y5	Z5	X6	Y6	Z6	X7	Y7	Z7	X8	Y8	Z8	X9	Y9	Z9	X10	Y10	Z10	X11	Y11	Z11	X12	Y12	Z12	X13	Y13	Z13	X14	Y14	Z14	X15	Y15	Z15	X16	Y16	Z16	X17	Y17	Z17	X18	Y18	Z18	X19	Y19	Z19	X20	Y20	Z20	X21	Y21	Z21	X22	Y22	Z22	X23	Y23	Z23	X24	Y24	Z24	X25	Y25	Z25	X26	Y26	Z26	X27	Y27	Z27	X28	Y28	Z28	X29	Y29	Z29	X30	Y30	Z30	X31	Y31	Z31	X32	Y32	Z32	X33	Y33	Z33	X34	Y34	Z34	X35	Y35	Z35	X36	Y36	Z36	X37	Y37	Z37	X38	Y38	Z38	X39	Y39	Z39	X40	Y40	Z40	X41	Y41	Z41	X42	Y42	Z42	X43	Y43	Z43	X44	Y44	Z44	X45	Y45	Z45	X46	Y46	Z46	X47	Y47	Z47	X48	Y48	Z48	X49	Y49	Z49	X50	Y50	Z50	X51	Y51	Z51	X52	Y52	Z52	X53	Y53	Z53	X54	Y54	Z54	X55	Y55	Z55	X56	Y56	Z56	X57	Y57	Z57	X58	Y58	Z58	X59	Y59	Z59	X60	Y60	Z60	X61	Y61	Z61	

183	0.91	-156.9312133789063	1562.472290039063	-914.1431274414065	-304.6393737792969	1534.29150390625	-1018.700256347656	-297.0242919921876	1528.921752929688	-865.4201660156252	-385.4862060546876	1419.900634765625	-950.9943847656252	-444.9176025390626	1098.979370117188	-962.4082641601565	-260.8353881835938	1325.742065429688	-947.0339355468752	-317.0121154785157	1360.28662109375	-1124.200317382813	-336.1682739257813	1203.734008789063	-1251.452270507813	-324.3988952636719	1158.949462890625	-1231.556274414063	-346.6981811523438	1144.788452148438	-1286.271728515625	-361.0430603027344	1097.198608398438	-1315.349853515625	-442.0168457031251	1090.512817382813	-1281.962524414063	-332.3822937011719	929.095886230469	-1130.737060546875	-379.0259704589844	913.9505615234377	-1155.9990234375	-335.1685180664063	882.5100097656252	-1191.78125	-332.6415100097657	1350.572143554688	-783.2478637695315	-393.7039794921876	1214.8876953125	-650.5006103515626	-364.1227722167969	1173.990356445313	-650.7047729492189	-407.514862060547	1156.3212890625	-612.2911376953126	-407.3481750488282	1086.678100585938	-590.7631835937501	-477.5083007812501	1076.87744140625	-644.1742553710939	-393.1444091796876	915.0429687500002	-761.8463745117189	-340.1117248535157	929.3259277343752	-776.2788696289065	-349.5579223632813	886.7745361328127	-718.6817016601564	-279.8865966796876	907.5585937500002	-1062.952880859375	-287.6075439453126	905.269470214844	-852.0726318359377	-448.869842529297	986.5007324218752	-960.1170043945315	-456.5459289550782	958.4048461914065	-988.9034423828127	-457.7895812988282	956.4346313476565	-932.0877075195315	-353.1857299804688	763.9672851562501	-1139.8154296875	-319.8037719726563	685.5070190429689	-1143.793090820313	-271.3256225585938	689.3365478515626	-1129.957275390625	-346.9104309082032	631.5964965820314	-1133.505249023438	-332.3940124511719	471.1194763183595	-1122.34228515625	-311.9544067382813	457.2916870117189	-1007.139099121094	-320.6201171875001	318.3922729492188	-1060.188232421875	-338.7804565429688	270.4108276367188	-1133.615600585938	-315.9142150878907	269.1707763671876	-1092.793212890625	-343.6293640136719	193.3374023437501	-1068.055297851563	-403.693328857422	79.20906066894533	-1139.008544921875	-386.8380126953126	86.23052215576173	-1053.323120117188	-463.8829650878907	42.50444793701173	-1099.032470703125	-254.5766601562501	54.09083175659181	-1065.929809570313	-246.8166961669922	54.35366058349611	-1104.342651367188	-261.6901855468751	43.37126541137696	-1156.162719726563	-354.5398559570313	667.2803955078126	-759.8168945312501	-310.9032592773438	616.8225097656251	-749.3092041015626	-277.1331787109376	622.3802490234376	-756.1701660156251	-328.1638488769532	536.3703002929689	-758.9259033203126	-317.0820617675782	478.824676513672	-754.7612304687501	-286.8622131347657	462.9114685058595	-867.404968261719	-288.0921325683594	339.2586364746094	-762.0012207031251	-369.2268371582032	273.5189819335938	-728.8984375000001	-324.5089416503907	263.0368957519532	-739.7597045898439	-320.2548828125001	212.9675903320313	-770.362731933594	-402.9162902832032	86.27085113525392	-725.8699951171876	-380.8245544433594	93.38821411132814	-809.3732910156252	-460.3774719238282	57.17570114135744	-772.1744384765627	-251.8913574218751	52.1232147216797	-782.7901000976565	-249.8081970214844	56.77124023437501	-737.1813354492189	-279.3545532226563	35.66955947875977	-685.3795776367189	
184	0.915	-157.3290100097657	1562.97412109375	-914.4968872070315	-305.8905029296876	1533.6591796875	-1018.781799316406	-297.1860351562501	1528.846801757813	-865.6182861328127	-385.1918334960939	1419.774780273438	-951.298034667969	-444.9415283203126	1099.019775390625	-962.576599121094	-260.5593872070313	1325.727661132813	-947.2471313476565	-316.5662841796876	1360.158935546875	-1124.374633789063	-335.4045715332032	1203.613159179688	-1251.70458984375	-324.9577636718751	1159.282348632813	-1231.937133789063	-346.0172119140626	1144.663208007813	-1286.3544921875	-359.6552124023438	1096.958862304688	-1315.2451171875	-441.2279663085939	1090.565307617188	-1282.376586914063	-332.4242553710938	928.974548339844	-1130.880126953125	-379.0467224121094	913.8399047851565	-1156.199096679688	-335.1313171386719	882.3030395507815	-1191.847900390625	-332.4678955078126	1350.493774414063	-783.4285278320315	-393.7850952148439	1214.825317382813	-650.8527832031251	-364.2094726562501	1173.957397460938	-650.9455566406251	-407.5798950195314	1156.19970703125	-612.6455688476564	-407.5373840332032	1086.557861328125	-591.2368164062501	-477.648895263672	1076.7568359375	-644.5471801757814	-393.2864379882814	914.8917236328127	-762.0576171875001	-340.3157958984376	929.1948852539065	-776.4243774414065	-349.7563781738282	886.5920410156252	-718.9015502929689	-280.0139465332032	907.3828125000002	-1063.04833984375	-287.7249450683594	905.2188110351565	-852.2022094726565	-448.9263000488282	986.5190429687502	-960.3150634765627	-456.6199340820314	958.407897949219	-989.0755004882815	-457.8838500976564	956.5278930664065	-932.2359619140627	-353.1202392578126	763.7834472656251	-1139.939208984375	-319.6564636230469	685.6099243164064	-1143.907348632813	-271.2885742187501	689.3894042968751	-1130.04345703125	-346.5821228027344	631.4473876953126	-1133.549926757813	-332.0450134277344	471.0067443847657	-1122.386840820313	-311.6792907714844	457.2160644531251	-1007.218383789063	-320.7354736328126	317.6911315917969	-1060.400512695313	-338.5279235839844	270.3597106933594	-1133.494140625	-315.5934143066407	269.1859436035157	-1092.762084960938	-343.4421691894532	193.3933563232422	-1068.031616210938	-403.6368713378907	79.24130249023439	-1139.02734375	-386.811737060547	86.23504638671876	-1053.303588867188	-463.8890991210939	42.50677490234376	-1099.038452148438	-254.5530700683594	54.03390502929689	-1065.9375	-246.8843841552735	54.33544158935548	-1104.346435546875	-261.8807983398438	43.48869323730469	-1156.2568359375	-354.1917114257813	667.2366943359376	-759.9331054687501	-310.4718627929688	616.8510131835939	-749.4357299804689	-276.5780639648438	622.5788574218751	-756.3629150390626	-327.4883422851563	536.3423461914064	-759.0352172851564	-316.1064453125001	478.9544372558595	-754.6915283203126	-286.2199401855469	462.9531860351564	-867.4315185546877	-287.1833496093751	339.3416137695313	-762.0314941406251	-368.3513488769532	273.7849426269532	-728.5252075195314	-323.7440185546876	263.2441406250001	-739.5981445312501	-319.7553710937501	213.1597595214844	-770.318298339844	-402.5874328613282	86.60903930664064	-725.4157104492189	-380.6584777832032	93.67372894287111	-809.0098266601565	-460.2414550781251	57.65350341796876	-771.5560302734377	-251.7560424804688	52.13130950927736	-782.6574707031252	-249.6263427734376	56.76192474365236	-737.1500854492189	-279.1871032714844	35.71303939819337	-685.2767944335939	
185	0.92	-157.5614776611328	1563.379638671875	-914.7382812500002	-306.0960083007813	1533.650146484375	-1019.010498046875	-297.4410705566407	1528.843505859375	-865.737487792969	-384.8936157226564	1419.642456054688	-951.5268554687502	-444.8764648437501	1099.05859375	-962.797058105469	-260.5025634765626	1325.709594726563	-947.4876098632815	-316.0502929687501	1360.096801757813	-1124.5458984375	-334.6145935058594	1203.470336914063	-1251.784912109375	-323.4084472656251	1158.908569335938	-1231.678466796875	-345.1415100097657	1144.38916015625	-1286.46533203125	-358.6942138671876	1096.738525390625	-1315.495727539063	-440.465545654297	1090.388305664063	-1283.05810546875	-332.4230041503907	928.903259277344	-1130.974243164063	-379.1208190917969	913.6972656250002	-1156.3994140625	-335.0866394042969	882.0275878906252	-1191.866455078125	-332.2977600097657	1350.376220703125	-783.5546875000002	-393.9168701171876	1214.751342773438	-651.1584472656251	-364.3094177246094	1173.909423828125	-651.1192016601564	-407.7326049804689	1156.139404296875	-612.9252929687501	-407.7968750000001	1086.413818359375	-591.4804077148439	-477.7005004882814	1076.869995117188	-644.9038696289064	-393.315887451172	914.7749633789065	-762.2819213867189	-340.5612792968751	929.1354980468752	-776.5284423828127	-350.0280151367188	886.3347778320315	-719.0947875976564	-280.1074523925782	907.166931152344	-1063.210327148438	-287.9054870605469	905.1755981445315	-852.3033447265627	-449.0613098144532	986.5878906250002	-960.4951171875002	-456.7770996093751	958.361999511719	-989.206726074219	-458.0347595214845	956.635192871094	-932.4116210937502	-353.3003845214844	763.7228393554689	-1139.95703125	-319.6232604980469	685.4951782226564	-1143.971923828125	-271.1771850585938	689.3887329101564	-1130.116333007813	-346.3977050781251	631.3698120117189	-1133.642211914063	-331.5554504394532	470.8579101562501	-1122.477905273438	-311.4415283203126	457.106658935547	-1007.251098632813	-320.8854370117188	317.6023254394532	-1060.626831054688	-338.2757263183594	270.2876892089844	-1133.4990234375	-315.3566589355469	269.0742797851563	-1092.742797851563	-343.3617553710938	193.3188476562501	-1068.00830078125	-403.5839843750001	79.23719787597658	-1139.020751953125	-386.8125610351564	86.2234344482422	-1053.295043945313	-463.9099731445314	42.56428527832032	-1099.047607421875	-254.5158233642579	54.07859039306642	-1065.95263671875	-246.9325408935547	54.35301589965822	-1104.3935546875	-261.8260803222657	43.4374008178711	-1156.232299804688	-353.7922363281251	667.2780761718751	-760.0954589843751	-309.9884643554688	616.9066162109376	-749.5632934570314	-276.1213989257813	622.6806030273439	-756.6008911132814	-326.8149108886719	536.3270874023439	-759.0825195312501	-315.1647338867188	479.1465454101564	-754.5593872070314	-285.5649414062501	463.0995178222657	-867.4772949218752	-286.4490051269532	339.3938903808594	-762.0966796875001	-367.5848693847657	274.0277709960938	-728.2050170898439	-323.1304931640626	263.3788146972657	-739.4937744140626	-319.3095703125001	213.3724365234376	-770.2551879882815	-402.3337707519532	86.80772399902345	-724.9467773437501	-381.6219787597657	94.24533843994142	-808.9307861328127	-460.0913391113282	58.01750564575197	-770.8485107421877	-251.7224884033204	52.15290832519533	-782.6215820312502	-249.3742065429688	56.86377334594728	-737.1010131835939	-278.9420776367188	35.71745681762696	-685.2245483398439	
186	0.925	-157.9555206298828	1564.067626953125	-915.0168457031252	-306.3702392578126	1533.678588867188	-1019.218933105469	-297.6329345703126	1528.800537109375	-865.9768676757815	-384.5811462402345	1419.514526367188	-951.7539672851565	-444.8281860351564	1099.105712890625	-962.9897460937502	-260.2115783691407	1325.664672851563	-947.6113891601565	-315.1461181640626	1359.945922851563	-1124.466064453125	-333.7208862304688	1203.289428710938	-1251.826049804688	-323.0638732910157	1158.877197265625	-1231.76025390625	-344.1993103027344	1144.04736328125	-1286.493896484375	-357.8013000488282	1096.527221679688	-1315.492065429688	-439.8245544433595	1090.473266601563	-1283.264038085938	-332.3545532226563	928.7313232421877	-1131.02392578125	-379.1102600097657	913.6973266601565	-1156.505615234375	-335.0583496093751	881.8630371093752	-1191.941040039063	-332.0657043457032	1350.253295898438	-783.7706298828127	-394.0689086914064	1214.712280273438	-651.4204101562501	-364.4607849121094	1173.864624023438	-651.2948608398439	-407.9682922363282	1156.070190429688	-613.1278686523439	-407.9787597656251	1086.333984375	-591.7644653320314	-477.8267211914064	1076.85205078125	-645.4824218750001	-393.660369873047	914.6846923828127	-762.4934692382814	-340.7389831542969	929.0408935546877	-776.5963134765627	-350.2701721191407	886.1826782226565	-719.2723999023439	-280.2902221679688	907.0213012695315	-1063.2744140625	-288.1754760742188	905.107604980469	-852.368347167969	-449.1039123535157	986.5698242187502	-960.6954345703127	-456.8720703125001	958.3718261718752	-989.3377685546877	-458.1868591308595	956.7346191406252	-932.5523681640627	-353.2913208007813	763.5998535156251	-1140.153564453125	-319.4975891113282	685.3988647460939	-1143.9873046875	-271.1191711425782	689.3375854492189	-1130.106811523438	-346.2162780761719	631.2495727539064	-1133.645385742188	-331.1839294433594	470.8204040527345	-1122.4794921875	-311.1113281250001	457.0448608398439	-1007.308837890625	-320.1655883789063	317.9063415527344	-1060.320922851563	-337.9632263183594	270.2631225585938	-1133.467041015625	-315.2984313964844	269.0650329589844	-1092.864501953125	-343.2536926269532	193.2429809570313	-1067.981689453125	-403.5713500976564	79.23725891113283	-1139.011474609375	-386.8018188476564	86.22142028808595	-1053.250610351563	-463.8585815429689	42.56930923461915	-1099.041137695313	-254.5139160156251	54.0237159729004	-1065.9697265625	-246.965560913086	54.3649024963379	-1104.38720703125	-261.8693542480469	43.43568420410157	-1156.273315429688	-353.4382324218751	667.2500000000001	-760.1839599609376	-309.4921875000001	616.9468383789064	-749.7940063476564	-275.6852722167969	622.8234863281251	-756.8361816406251	-326.2677001953126	536.3169555664064	-759.1594238281251	-314.3692016601563	479.2584838867189	-754.5089721679689	-285.7972106933594	463.2833251953126	-867.7669677734377	-285.9065551757813	339.3395996093751	-762.2010498046876	-366.8682250976563	274.1857299804688	-727.9453735351564	-322.4680175781251	263.5410156250001	-739.4022827148439	-318.8694763183594	213.4220886230469	-770.191833496094	-401.9825439453126	87.07417297363283	-724.4433593750001	-381.5557556152344	94.47825622558595	-808.4168701171877	-459.9922790527345	58.47572326660158	-770.176940917969	-251.6058197021485	52.21983337402345	-782.515563964844	-249.1995697021485	56.91925430297853	-737.0419921875001	-278.7169799804688	35.77826690673829	-685.1173706054689	
